# xmcd
#
# Track frame offsets:
#	150
#	15735
#	35167
#	53120
#	62997
#	79132
#	95462
#	107510
#	122522
#	134730
#	146007
#	157735
#
# Disc length: 2326 seconds
#
# Revision: 1
# Processed by: cddbd v1.5.2PL0 Copyright (c) Steve Scherf et al.
# Submitted via: audiograbber 1.83.01
#
DISCID=a209140c
DTITLE=Jack Roux - This Loving Heart Of Mine
DYEAR=1999
DGENRE=Country
TTITLE0=Ghost Floating Around My Head
TTITLE1=Dreaming Of You
TTITLE2=Know What I Mean
TTITLE3=Pinned Down By Your Heart
TTITLE4=This Loving Heart Of Mine
TTITLE5=Never Thinkin´ Of Me
TTITLE6=I´ll Be There For You
TTITLE7=If You Can´t Move It Over
TTITLE8=Don´t Like It Like That
TTITLE9=Strange Things Hangin´ Round Me
TTITLE10=Move-a-long
TTITLE11=Would You Travel With Me
EXTD=
EXTT0=
EXTT1=
EXTT2=
EXTT3=
EXTT4=
EXTT5=
EXTT6=
EXTT7=
EXTT8=
EXTT9=
EXTT10=
EXTT11=
PLAYORDER=
